<svg xmlns="http://www.w3.org/2000/svg" viewBox="0 0 900 500"><rect width="900" height="500" fill="#eceff1"/><path d="M0 340h900v160H0z" fill="#b8bdc3"/><g stroke="#c8cdd2"> <path d="M0 80h900M0 140h900M0 200h900M0 260h900"/><path d="M70 0v340M150 0v340M230 0v340M310 0v340M390 0v340M470 0v340M550 0v340M630 0v340M710 0v340M790 0v340"/></g><ellipse cx="235" cy="260" rx="70" ry="22" fill="#8d949b" stroke="#333" stroke-width="5"/><rect x="178" y="260" width="114" height="130" fill="#7d858d" stroke="#333" stroke-width="5"/><path d="M195 265l46-35 42 32-35 42z" fill="#999" stroke="#444" stroke-width="4"/><g fill="#30353a"><circle cx="600" cy="190" r="37"/><rect x="582" y="225" width="36" height="100"/><path d="M587 320l-30 135h24l23-112 27 112h25l-38-135zM585 245l-45 70 18 10 37-55 40 55 18-12-42-68z"/></g><rect x="550" y="55" width="270" height="65" fill="#fff" stroke="#222" stroke-width="3"/><text x="580" y="96" font-family="Arial" font-weight="700" font-size="30">“No more?”</text><text x="24" y="42" font-family="Arial" font-weight="700" font-size="28">IMAGE 2</text></svg>