<svg xmlns="http://www.w3.org/2000/svg" viewBox="0 0 900 500"><rect width="900" height="500" fill="#cfd4d9"/><path d="M0 390l130-45 150 35 145-55 170 55 165-40 140 50v110H0z" fill="#6e747a"/><g fill="none" stroke="#fff" stroke-width="9"><ellipse cx="190" cy="245" rx="78" ry="92"/><ellipse cx="350" cy="215" rx="90" ry="108"/><ellipse cx="550" cy="215" rx="90" ry="108"/><ellipse cx="720" cy="245" rx="78" ry="92"/></g><g fill="#252a30"><circle cx="430" cy="280" r="28"/><rect x="418" y="307" width="24" height="70"/><path d="M421 372l-18 105h20l10-84 14 84h20l-27-105z"/></g><g fill="#333"><circle cx="190" cy="255" r="13"/><rect x="185" y="268" width="10" height="42"/><circle cx="335" cy="235" r="13"/><rect x="330" y="248" width="10" height="42"/><circle cx="375" cy="245" r="13"/><rect x="370" y="258" width="10" height="42"/><circle cx="535" cy="235" r="13"/><rect x="530" y="248" width="10" height="42"/><circle cx="575" cy="245" r="13"/><rect x="570" y="258" width="10" height="42"/><circle cx="720" cy="255" r="13"/><rect x="715" y="268" width="10" height="42"/></g><text x="24" y="42" font-family="Arial" font-weight="700" font-size="28">IMAGE 3</text></svg>