<svg xmlns="http://www.w3.org/2000/svg" viewBox="0 0 900 500"><rect width="900" height="500" fill="#d9dde2"/><path d="M0 390L170 330l150 40 160-50 150 55 140-45 130 60v110H0z" fill="#6c737b"/><g fill="#252a30"><circle cx="220" cy="190" r="43"/><rect x="200" y="230" width="42" height="105"/><path d="M204 330l-30 135h27l23-115 22 115h28l-33-135z"/><circle cx="685" cy="215" r="65"/><rect x="660" y="275" width="55" height="130"/><path d="M667 397l-15 93h28l15-75 14 75h28l-22-93z"/></g><circle cx="157" cy="290" r="55" fill="#777" stroke="#222" stroke-width="6"/><rect x="315" y="205" width="55" height="42" rx="4" fill="#888" stroke="#222" stroke-width="5"/><rect x="338" y="247" width="10" height="95" fill="#555"/><path d="M337 20l-8 105 40 42-35 84 35 68-43 78" fill="none" stroke="#fff" stroke-width="8"/><text x="24" y="42" font-family="Arial" font-weight="700" font-size="28">IMAGE 1</text></svg>