<svg xmlns="http://www.w3.org/2000/svg" viewBox="0 0 900 480"><rect width="900" height="480" fill="#e1e5e8"/><rect y="330" width="900" height="150" fill="#6e7376"/><rect x="18" y="18" width="282" height="40" fill="white" stroke="black"/><text x="32" y="46" font-size="26" font-family="Arial" font-weight="700">VISUAL SOURCE 1</text><path d="M90 145v265M90 145q70-30 70 50" fill="none" stroke="#171717" stroke-width="12"/><circle cx="137" cy="227" r="18" fill="#333"/><path d="M137 245v90" stroke="#333" stroke-width="16"/><rect x="320" y="250" width="200" height="150" fill="#464646" stroke="#000" stroke-width="4"/><g fill="#888" stroke="#000"><circle cx="359" cy="234" r="18"/><circle cx="399" cy="234" r="18"/><circle cx="439" cy="234" r="18"/><circle cx="479" cy="234" r="18"/></g><path d="M415 250v150" stroke="#fff" stroke-width="5"/><circle cx="272" cy="292" r="22" fill="#222"/><path d="M272 314v76M268 338l-38 25" stroke="#222" stroke-width="18"/><circle cx="718" cy="207" r="28" fill="#111"/><path d="M718 235v130M705 270l-40 60M733 270l45 50" stroke="#111" stroke-width="25"/></svg>