<svg xmlns="http://www.w3.org/2000/svg" viewBox="0 0 900 480"><rect width="900" height="480" fill="#e1e5e8"/><rect y="330" width="900" height="150" fill="#6e7376"/><rect x="18" y="18" width="282" height="40" fill="white" stroke="black"/><text x="32" y="46" font-size="26" font-family="Arial" font-weight="700">VISUAL SOURCE 3</text><rect x="570" y="100" width="280" height="320" fill="none" stroke="#171717" stroke-width="18"/><rect x="645" y="170" width="135" height="220" fill="#eee" stroke="#555" stroke-width="4"/><text x="620" y="140" font-size="26" font-family="Arial" font-weight="700">EXIT</text><path d="M160 135v275M160 135q70-30 70 50" fill="none" stroke="#171717" stroke-width="12"/><circle cx="207" cy="228" r="18" fill="#333"/><path d="M207 246v90" stroke="#333" stroke-width="16"/><circle cx="415" cy="235" r="25" fill="#111"/><path d="M415 260v110M402 295l-55 35" stroke="#111" stroke-width="23"/><g fill="#444" stroke="#444" stroke-width="14"><circle cx="669" cy="279" r="19"/><path d="M669 298v82"/><circle cx="754" cy="279" r="19"/><path d="M754 298v82"/></g><rect x="285" y="65" width="255" height="25" fill="none" stroke="#000" stroke-width="3"/><rect x="290" y="70" width="130" height="15" fill="#555"/></svg>